# xmcd CD database file
#
# Track frame offsets:
#	150
#	18967
#	40195
#	59395
#	83155
#	101515
#	121862
#	143692
#	159245
#	179957
#
# Disc length: 2691 seconds
#
# Revision: 2
# Processed by: cddbd v1.5.2PL0 Copyright (c) Steve Scherf et al.
# Submitted via: CDex 1.51
#
DISCID=7b0a810a
DTITLE=Various Artist - History of Rap 1996(CD2)
DYEAR=1900
DGENRE=
TTITLE0=Tone Loc - Funky Cold Medina
TTITLE1=L.L. Cool J - I'm Bad
TTITLE2=Too Short - Short But Funky
TTITLE3=Eric B. and Rakim - Microphone Fiend
TTITLE4=The Fresh Prince - Brand New Funk
TTITLE5=Salt 'N Pepa - Push It
TTITLE6=Kid 'N Play - Do This My Way
TTITLE7=Ultramagnetic MCs - Ease Back
TTITLE8=Stetsasonic - Sally
TTITLE9=King Sun - Hey Love
EXTD=
EXTT0=
EXTT1=
EXTT2=
EXTT3=
EXTT4=
EXTT5=
EXTT6=
EXTT7=
EXTT8=
EXTT9=
PLAYORDER=
